<?xml version="1.0" encoding="UTF-8"?>
<!DOCTYPE svg PUBLIC "-//W3C//DTD SVG 1.1//EN" "http://www.w3.org/Graphics/SVG/1.1/DTD/svg11.dtd">
<svg xmlns="http://www.w3.org/2000/svg" version="1.1" viewBox="0 0 43 43" stroke="none">
	<rect width="100%" height="100%" fill="#ffffff"/>
	<path d="M3,3h7v1h-7z M12,3h1v4h-1z M19,3h1v3h-1z M20,3h1v1h-1z M22,3h1v1h-1z M24,3h4v1h-4z M29,3h1v1h-1z M31,3h1v1h-1z M33,3h7v1h-7z M3,4h1v6h-1z M9,4h1v6h-1z M11,4h1v1h-1z M14,4h1v3h-1z M15,4h1v1h-1z M18,4h1v3h-1z M21,4h1v1h-1z M24,4h1v2h-1z M30,4h1v2h-1z M33,4h1v6h-1z M39,4h1v6h-1z M5,5h3v3h-3z M13,5h1v1h-1z M17,5h1v1h-1z M22,5h2v1h-2z M27,5h1v1h-1z M35,5h3v3h-3z M11,6h1v1h-1z M15,6h1v6h-1z M16,6h1v1h-1z M20,6h2v1h-2z M23,6h1v1h-1z M26,6h1v2h-1z M28,6h1v3h-1z M13,7h1v3h-1z M17,7h1v1h-1z M19,7h1v3h-1z M22,7h1v1h-1z M24,7h2v1h-2z M27,7h1v1h-1z M29,7h1v5h-1z M31,7h1v1h-1z M11,8h1v2h-1z M18,8h1v1h-1z M20,8h1v1h-1z M23,8h1v3h-1z M24,8h1v1h-1z M30,8h1v1h-1z M4,9h5v1h-5z M17,9h1v1h-1z M21,9h1v3h-1z M25,9h1v2h-1z M27,9h1v1h-1z M31,9h1v1h-1z M34,9h5v1h-5z M14,10h1v1h-1z M24,10h1v1h-1z M30,10h1v2h-1z M3,11h5v1h-5z M9,11h5v1h-5z M16,11h1v1h-1z M18,11h1v1h-1z M20,11h1v1h-1z M27,11h1v1h-1z M31,11h2v2h-2z M34,11h1v2h-1z M36,11h1v5h-1z M38,11h1v2h-1z M3,12h1v2h-1z M6,12h1v1h-1z M11,12h2v2h-2z M14,12h1v1h-1z M17,12h1v3h-1z M19,12h1v3h-1z M22,12h5v1h-5z M28,12h1v1h-1z M37,12h1v2h-1z M7,13h1v1h-1z M9,13h2v1h-2z M13,13h1v1h-1z M18,13h1v3h-1z M20,13h2v1h-2z M24,13h1v2h-1z M27,13h1v2h-1z M30,13h1v1h-1z M39,13h1v1h-1z M4,14h3v1h-3z M8,14h1v4h-1z M12,14h1v4h-1z M14,14h1v1h-1z M22,14h2v1h-2z M25,14h2v1h-2z M31,14h3v1h-3z M35,14h1v2h-1z M38,14h1v1h-1z M3,15h1v2h-1z M9,15h2v1h-2z M16,15h1v2h-1z M20,15h2v1h-2z M23,15h1v1h-1z M25,15h1v1h-1z M29,15h1v5h-1z M32,15h3v1h-3z M37,15h1v3h-1z M39,15h1v1h-1z M7,16h1v6h-1z M10,16h2v2h-2z M13,16h3v1h-3z M17,16h1v1h-1z M19,16h1v1h-1z M22,16h1v1h-1z M24,16h1v3h-1z M26,16h2v1h-2z M32,16h1v1h-1z M34,16h1v1h-1z M38,16h1v2h-1z M4,17h1v1h-1z M9,17h1v1h-1z M13,17h1v1h-1z M15,17h1v2h-1z M18,17h1v3h-1z M20,17h1v1h-1z M25,17h1v3h-1z M27,17h2v1h-2z M30,17h1v3h-1z M35,17h1v3h-1z M39,17h1v3h-1z M5,18h2v1h-2z M17,18h1v2h-1z M19,18h1v1h-1z M22,18h2v1h-2z M26,18h1v1h-1z M31,18h1v3h-1z M34,18h1v1h-1z M36,18h1v2h-1z M4,19h1v2h-1z M8,19h2v1h-2z M11,19h1v2h-1z M13,19h1v2h-1z M16,19h1v1h-1z M20,19h1v1h-1z M27,19h1v1h-1z M33,19h1v1h-1z M37,19h1v3h-1z M3,20h1v2h-1z M8,20h1v1h-1z M12,20h1v1h-1z M14,20h2v1h-2z M19,20h1v1h-1z M21,20h4v1h-4z M26,20h1v1h-1z M28,20h1v1h-1z M38,20h1v2h-1z M6,21h1v1h-1z M9,21h2v1h-2z M15,21h2v1h-2z M18,21h1v2h-1z M21,21h1v1h-1z M24,21h2v2h-2z M27,21h1v1h-1z M30,21h1v1h-1z M32,21h1v3h-1z M39,21h1v3h-1z M4,22h1v1h-1z M8,22h1v1h-1z M10,22h2v1h-2z M13,22h1v1h-1z M22,22h2v1h-2z M29,22h1v2h-1z M35,22h1v2h-1z M3,23h1v2h-1z M6,23h1v2h-1z M9,23h1v1h-1z M15,23h2v1h-2z M19,23h3v1h-3z M23,23h1v1h-1z M30,23h2v1h-2z M33,23h2v1h-2z M36,23h3v1h-3z M10,24h1v1h-1z M13,24h1v4h-1z M14,24h1v1h-1z M17,24h1v1h-1z M22,24h1v1h-1z M25,24h3v1h-3z M31,24h1v2h-1z M34,24h1v1h-1z M36,24h1v1h-1z M38,24h1v2h-1z M4,25h1v1h-1z M7,25h1v2h-1z M9,25h1v1h-1z M16,25h1v1h-1z M18,25h3v1h-3z M23,25h2v2h-2z M27,25h1v2h-1z M29,25h2v1h-2z M35,25h1v1h-1z M37,25h1v1h-1z M39,25h1v3h-1z M11,26h2v2h-2z M17,26h1v1h-1z M25,26h1v1h-1z M30,26h1v2h-1z M32,26h1v3h-1z M6,27h1v1h-1z M9,27h1v1h-1z M16,27h1v1h-1z M18,27h4v1h-4z M26,27h1v2h-1z M28,27h1v2h-1z M33,27h1v1h-1z M35,27h4v1h-4z M3,28h1v4h-1z M4,28h2v1h-2z M7,28h1v3h-1z M11,28h1v1h-1z M14,28h2v1h-2z M17,28h1v1h-1z M22,28h4v1h-4z M27,28h1v3h-1z M29,28h1v3h-1z M31,28h1v1h-1z M34,28h1v1h-1z M37,28h2v2h-2z M5,29h2v1h-2z M9,29h1v1h-1z M12,29h2v1h-2z M18,29h2v1h-2z M25,29h1v1h-1z M30,29h1v3h-1z M33,29h1v1h-1z M35,29h1v1h-1z M39,29h1v2h-1z M5,30h1v1h-1z M10,30h2v1h-2z M13,30h1v1h-1z M18,30h1v1h-1z M22,30h3v1h-3z M26,30h1v1h-1z M31,30h1v7h-1z M32,30h1v2h-1z M6,31h1v1h-1z M8,31h2v1h-2z M12,31h1v6h-1z M16,31h1v1h-1z M19,31h3v1h-3z M23,31h1v1h-1z M28,31h1v1h-1z M33,31h5v1h-5z M11,32h1v2h-1z M13,32h3v1h-3z M17,32h1v2h-1z M22,32h1v1h-1z M25,32h3v1h-3z M29,32h1v2h-1z M35,32h1v5h-1z M37,32h1v1h-1z M3,33h7v1h-7z M16,33h1v1h-1z M18,33h1v1h-1z M20,33h1v1h-1z M24,33h1v2h-1z M33,33h1v1h-1z M38,33h1v3h-1z M39,33h1v1h-1z M3,34h1v6h-1z M9,34h1v6h-1z M25,34h1v1h-1z M5,35h3v3h-3z M11,35h1v5h-1z M13,35h1v3h-1z M15,35h2v1h-2z M18,35h4v1h-4z M23,35h1v1h-1z M28,35h1v2h-1z M30,35h1v1h-1z M32,35h3v1h-3z M36,35h2v1h-2z M39,35h1v1h-1z M14,36h1v1h-1z M17,36h1v3h-1z M20,36h1v1h-1z M22,36h1v1h-1z M25,36h3v1h-3z M29,36h1v1h-1z M33,36h2v1h-2z M15,37h2v1h-2z M18,37h1v1h-1z M21,37h1v3h-1z M24,37h1v2h-1z M30,37h1v1h-1z M34,37h1v1h-1z M38,37h2v1h-2z M12,38h1v2h-1z M14,38h1v1h-1z M19,38h1v2h-1z M29,38h1v1h-1z M31,38h2v1h-2z M39,38h1v2h-1z M4,39h5v1h-5z M16,39h1v1h-1z M18,39h1v1h-1z M20,39h1v1h-1z M22,39h2v1h-2z M28,39h1v1h-1z M32,39h1v1h-1z M34,39h1v1h-1z M37,39h2v1h-2z" fill="#000000"/>
</svg>
